<svg xmlns="http://www.w3.org/2000/svg" width="66" height="66" viewBox="0 0 66 66">
  <g id="Group_4432" data-name="Group 4432" transform="translate(-615 -1792)">
    <g id="Group_4424" data-name="Group 4424" transform="translate(535 -1130)">
      <g id="Ellipse_177" data-name="Ellipse 177" transform="translate(80 2922)" fill="#fff" stroke="#f0f0f0" stroke-width="1.5">
        <circle cx="33" cy="33" r="33" stroke="none"/>
        <circle cx="33" cy="33" r="32.25" fill="none"/>
      </g>
    </g>
    <g id="technical-support" transform="translate(632 1808)">
      <path id="Path_3098" data-name="Path 3098" d="M178.2,8.615h-.35a9.779,9.779,0,0,0-.864-2.086l.249-.249a1.516,1.516,0,0,0,0-2.14l-1.66-1.658a1.513,1.513,0,0,0-2.141,0l-.249.249a9.744,9.744,0,0,0-2.086-.866v-.35A1.515,1.515,0,0,0,169.589,0h-2.347a1.515,1.515,0,0,0-1.514,1.514v.35a9.771,9.771,0,0,0-2.087.866l-.248-.248a1.513,1.513,0,0,0-2.141,0l-1.659,1.659a1.516,1.516,0,0,0,0,2.14l.249.249a9.729,9.729,0,0,0-.865,2.086h-.352a1.515,1.515,0,0,0-1.514,1.514v2.349a1.515,1.515,0,0,0,1.514,1.514h.352a9.732,9.732,0,0,0,.865,2.086l-.249.249a1.516,1.516,0,0,0,0,2.14l1.658,1.658a1.5,1.5,0,0,0,1.071.445h0a1.5,1.5,0,0,0,1.07-.443l.249-.249a9.723,9.723,0,0,0,2.087.865v.352a1.515,1.515,0,0,0,1.514,1.514h2.347a1.515,1.515,0,0,0,1.514-1.514v-.352a9.693,9.693,0,0,0,2.086-.865l.247.247a1.513,1.513,0,0,0,2.141,0l1.662-1.66a1.516,1.516,0,0,0,0-2.14l-.249-.249a9.78,9.78,0,0,0,.864-2.086h.35a1.515,1.515,0,0,0,1.514-1.514V10.129A1.515,1.515,0,0,0,178.2,8.615Zm-8.452,12.477a.165.165,0,0,1-.163.163h-2.347a.165.165,0,0,1-.163-.163V15.959a.675.675,0,0,0-.44-.633,4.625,4.625,0,0,1-1-8.173c.057-.039.108-.071.152-.1,0,.088-.009.171-.012.215-.005.069-.009.123-.009.176v3.187a2.794,2.794,0,0,0,2.6,2.781.681.681,0,0,0,.089,0,2.793,2.793,0,0,0,2.6-2.781V7.447c0-.053,0-.107-.009-.175,0-.044-.009-.128-.012-.216.044.026.094.058.151.1a4.625,4.625,0,0,1-1,8.173.675.675,0,0,0-.44.633v5.134Zm8.615-8.615a.167.167,0,0,1-.163.163h-.875a.675.675,0,0,0-.659.526,8.446,8.446,0,0,1-1.1,2.656.675.675,0,0,0,.093.838l.62.62a.166.166,0,0,1,0,.23l-1.663,1.661a.162.162,0,0,1-.228,0l-.62-.62a.675.675,0,0,0-.839-.093,8.377,8.377,0,0,1-1.83.869V16.408a5.975,5.975,0,0,0,.85-10.37c-.251-.172-1.016-.695-1.685-.31s-.591,1.265-.563,1.643c0,.033,0,.061.005.076v3.187a1.3,1.3,0,1,1-2.59,0V7.452c0-.02,0-.048.005-.081.028-.378.094-1.264-.562-1.643s-1.434.137-1.686.309a5.974,5.974,0,0,0,.852,10.371v2.918a8.421,8.421,0,0,1-1.833-.87.675.675,0,0,0-.838.093l-.621.622a.162.162,0,0,1-.228,0l-1.659-1.66a.166.166,0,0,1,0-.23l.62-.62a.675.675,0,0,0,.093-.838,8.4,8.4,0,0,1-1.1-2.654.675.675,0,0,0-.659-.527h-.877a.167.167,0,0,1-.163-.163V10.129a.165.165,0,0,1,.163-.163h.877a.675.675,0,0,0,.659-.527,8.4,8.4,0,0,1,1.1-2.654.675.675,0,0,0-.093-.838l-.62-.62a.166.166,0,0,1,0-.23l1.661-1.661a.162.162,0,0,1,.228,0l.62.62a.675.675,0,0,0,.838.093,8.44,8.44,0,0,1,2.657-1.1.675.675,0,0,0,.527-.659V1.514a.165.165,0,0,1,.163-.163h2.347a.165.165,0,0,1,.163.163v.875a.675.675,0,0,0,.526.659,8.407,8.407,0,0,1,2.655,1.1.675.675,0,0,0,.839-.093l.622-.622a.162.162,0,0,1,.229,0L176.284,5.1a.166.166,0,0,1,0,.23l-.62.62a.675.675,0,0,0-.093.838,8.447,8.447,0,0,1,1.1,2.656.675.675,0,0,0,.659.526h.875a.165.165,0,0,1,.163.163v2.349Z" transform="translate(-147.862 0)" fill="#d20d21" stroke="#d20d21" stroke-width="0.5"/>
      <path id="Path_3099" data-name="Path 3099" d="M380.055,437.585a.675.675,0,0,0,.955.955l0,0a.675.675,0,0,0-.957-.953Z" transform="translate(-355.566 -407.853)" fill="#d20d21" stroke="#d20d21" stroke-width="0.5"/>
      <path id="Path_3100" data-name="Path 3100" d="M47.733,333.009l-5.361,2.753a2.49,2.49,0,0,0-1.8-.764H36.9a1.011,1.011,0,0,1-.259-.018,1.978,1.978,0,0,1-.2-.175l-.033-.031c-2.972-2.8-5.482-2.62-8.336-1.493a1.943,1.943,0,0,1-.935.2H26.31a1.8,1.8,0,0,0-1.7-1.23h-2.7a1.794,1.794,0,0,0-1.791,1.793v7.088a1.793,1.793,0,0,0,1.791,1.791h2.7a1.8,1.8,0,0,0,1.7-1.229h1.519a.718.718,0,0,1,.29.044l.215.059,6.988,1.87c.308.083.591.165.864.244a8.806,8.806,0,0,0,2.432.478,5.339,5.339,0,0,0,3.033-1.091l.018-.012L43,342.336a.675.675,0,1,0-.784-1.1l-1.325.945c-1.769,1.177-2.521.959-4.332.435-.279-.081-.567-.164-.889-.251l-6.989-1.87-.2-.055a1.881,1.881,0,0,0-.656-.095H26.4v-5.512h.759l.038,0a3.165,3.165,0,0,0,1.373-.3c2.507-.989,4.442-1.107,6.916,1.221l.033.031a1.635,1.635,0,0,0,1.384.559h3.673a1.148,1.148,0,0,1,1,.592l.007.012a1.145,1.145,0,0,1-1.01,1.689H34.624a.675.675,0,1,0,0,1.35h5.953a2.494,2.494,0,0,0,2.437-3.04l5.336-2.74a1.087,1.087,0,1,1,1.151,1.841l-2.341,1.667a.675.675,0,1,0,.783,1.1l2.341-1.667a2.433,2.433,0,0,0-2.551-4.142ZM25.05,341.134a.447.447,0,0,1-.443.441h-2.7a.447.447,0,0,1-.441-.441v-7.088a.442.442,0,0,1,.441-.443h2.7a.448.448,0,0,1,.443.443Z" transform="translate(-20.116 -309.818)" fill="#d20d21" stroke="#d20d21" stroke-width="0.5"/>
    </g>
  </g>
</svg>
