<svg xmlns="http://www.w3.org/2000/svg" xmlns:xlink="http://www.w3.org/1999/xlink" width="45" height="45" viewBox="0 0 45 45">
  <defs>
    <filter id="Ellipse_169" x="0" y="0" width="45" height="45" filterUnits="userSpaceOnUse">
      <feOffset dy="3" input="SourceAlpha"/>
      <feGaussianBlur stdDeviation="3" result="blur"/>
      <feFlood flood-opacity="0.161"/>
      <feComposite operator="in" in2="blur"/>
      <feComposite in="SourceGraphic"/>
    </filter>
  </defs>
  <g id="facebook" transform="translate(9 6)">
    <g transform="matrix(1, 0, 0, 1, -9, -6)" filter="url(#Ellipse_169)">
      <circle id="Ellipse_169-2" data-name="Ellipse 169" cx="13.5" cy="13.5" r="13.5" transform="translate(9 6)" fill="#4267b2"/>
    </g>
    <path id="facebook-2" data-name="facebook" d="M14.542,21.962l.012-7.08H12.715a.434.434,0,0,1-.434-.432l-.009-2.282a.434.434,0,0,1,.434-.436h1.836V9.527a3.6,3.6,0,0,1,3.846-3.952h1.873a.434.434,0,0,1,.434.434V7.933a.434.434,0,0,1-.434.434h-1.15c-1.241,0-1.482.59-1.482,1.456v1.909h2.728a.434.434,0,0,1,.431.485l-.27,2.282a.434.434,0,0,1-.431.383H17.642l-.012,7.08Z" transform="translate(-3.209 -0.452)" fill="#fff"/>
  </g>
</svg>
