<svg xmlns="http://www.w3.org/2000/svg" width="66" height="66" viewBox="0 0 66 66">
  <g id="Group_4434" data-name="Group 4434" transform="translate(-201 -1998)">
    <g id="Group_4428" data-name="Group 4428" transform="translate(121 -924)">
      <g id="Ellipse_177" data-name="Ellipse 177" transform="translate(80 2922)" fill="#fff" stroke="#f0f0f0" stroke-width="1.5">
        <circle cx="33" cy="33" r="33" stroke="none"/>
        <circle cx="33" cy="33" r="32.25" fill="none"/>
      </g>
    </g>
    <g id="settings" transform="translate(217 2014)">
      <path id="Path_3093" data-name="Path 3093" d="M24.98,18.946l-2.3,2.3L20.37,18.944,25.9,13.41a6.822,6.822,0,0,0,8.2-9.057l-.564-1.441L29.916,6.534l-1.462-.392-.392-1.463,3.622-3.622L30.243.493a6.822,6.822,0,0,0-9.057,8.2l-5.534,5.534L8.22,6.794l1.972-1.972L4.081.006,0,4.087,4.817,10.2,6.789,8.226l7.432,7.431L9.335,20.543a7.18,7.18,0,1,0,4.718,4.718l4.885-4.885,2.307,2.307-2.3,2.3,8.342,8.342a4.271,4.271,0,0,0,6.04-6.04ZM2.7,4.246,4.24,2.71,7.149,5,5,7.155ZM23.528,9.213,23.287,8.6A4.8,4.8,0,0,1,27.83,2.047L25.8,4.074l1,3.721,3.721,1,2.027-2.027A4.8,4.8,0,0,1,26,11.309l-.617-.242-6.445,6.445-1.854-1.854ZM11.683,24.767l.264.628A5.168,5.168,0,1,1,9.2,22.648l.628.264,5.823-5.823,1.854,1.854Zm13.3-2.957,1.854,1.854-3.176,3.176L21.8,24.986ZM31.89,31.9a2.246,2.246,0,0,1-3.176,0L25.09,28.272,28.266,25.1,31.89,28.72a2.249,2.249,0,0,1,0,3.176Z" transform="translate(0 -0.006)" fill="#d20d21"/>
      <path id="Path_3094" data-name="Path 3094" d="M60.536,356.444a3.336,3.336,0,1,0,2.359.977A3.314,3.314,0,0,0,60.536,356.444Zm.927,4.263a1.311,1.311,0,1,1,0-1.854A1.3,1.3,0,0,1,61.463,360.707Z" transform="translate(-53.339 -332.387)" fill="#d20d21"/>
    </g>
  </g>
</svg>
