<svg xmlns="http://www.w3.org/2000/svg" width="66" height="66" viewBox="0 0 66 66">
  <g id="Group_4431" data-name="Group 4431" transform="translate(-201 -1792)">
    <g id="Group_4423" data-name="Group 4423" transform="translate(121 -1130)">
      <g id="Ellipse_177" data-name="Ellipse 177" transform="translate(80 2922)" fill="#fff" stroke="#f0f0f0" stroke-width="1.5">
        <circle cx="33" cy="33" r="33" stroke="none"/>
        <circle cx="33" cy="33" r="32.25" fill="none"/>
      </g>
    </g>
    <g id="class" transform="translate(214 1808)">
      <path id="Path_3089" data-name="Path 3089" d="M35.892,0H18.525a3.643,3.643,0,0,0-3.639,3.639V14.78l-3.225-1.6c-.109-.054-.22-.106-.331-.154a5.5,5.5,0,1,0-7.588.336A7.33,7.33,0,0,0,0,19.766v3.721a3.645,3.645,0,0,0,2.481,3.45v6.474a1.158,1.158,0,0,0,1.158,1.158h7.443a1.158,1.158,0,0,0,1.158-1.158V20.4l3.708,1.854a3.177,3.177,0,0,0,4.214-1.329h4.152l-4.4,12.091a1.158,1.158,0,0,0,2.177.792l4.685-12.883h.812l4.733,12.887a1.158,1.158,0,0,0,2.174-.8l-4.44-12.088h5.834a3.639,3.639,0,0,0,3.639-3.639V3.639A3.639,3.639,0,0,0,35.892,0ZM4.177,9.221A3.184,3.184,0,1,1,7.36,12.4,3.187,3.187,0,0,1,4.177,9.221ZM18.182,19.685l-.009.026a.856.856,0,0,1-1.19.469L11.6,17.489a1.159,1.159,0,0,0-1.676,1.036V32.253H4.8V25.968A1.158,1.158,0,0,0,3.638,24.81a1.324,1.324,0,0,1-1.323-1.323V19.766A5.045,5.045,0,0,1,7.36,14.721H8.383a5.047,5.047,0,0,1,2.245.528l7.208,3.585a.7.7,0,0,1,.347.851Zm19.032-2.4a1.314,1.314,0,0,1-.387.936,1.331,1.331,0,0,1-.936.387H20.414l-.006-.019,2.874-5.748A1.158,1.158,0,0,0,21.21,11.8l-2.451,4.9L17.2,15.932V3.639a1.324,1.324,0,0,1,1.323-1.323H35.892a1.331,1.331,0,0,1,.936.388,1.312,1.312,0,0,1,.387.935Zm0,0" transform="translate(0.001 0)" fill="#d20d21"/>
      <path id="Path_3090" data-name="Path 3090" d="M270.629,64.266H258.224a1.158,1.158,0,0,0,0,2.316h12.405a1.158,1.158,0,1,0,0-2.316Zm0,0" transform="translate(-237.218 -59.304)" fill="#d20d21"/>
      <path id="Path_3091" data-name="Path 3091" d="M344.759,120.5h-6.2a1.158,1.158,0,1,0,0,2.316h6.2a1.158,1.158,0,1,0,0-2.316Zm0,0" transform="translate(-311.347 -111.196)" fill="#d20d21"/>
      <path id="Path_3092" data-name="Path 3092" d="M344.759,176.734h-6.2a1.158,1.158,0,1,0,0,2.316h6.2a1.158,1.158,0,1,0,0-2.316Zm0,0" transform="translate(-311.347 -163.088)" fill="#d20d21"/>
    </g>
  </g>
</svg>
