<svg xmlns="http://www.w3.org/2000/svg" width="66" height="66" viewBox="0 0 66 66">
  <g id="Group_4433" data-name="Group 4433" transform="translate(-1062 -1792)">
    <g id="Group_4425" data-name="Group 4425" transform="translate(982 -1130)">
      <g id="Ellipse_177" data-name="Ellipse 177" transform="translate(80 2922)" fill="#fff" stroke="#f0f0f0" stroke-width="1.5">
        <circle cx="33" cy="33" r="33" stroke="none"/>
        <circle cx="33" cy="33" r="32.25" fill="none"/>
      </g>
    </g>
    <g id="analysis" transform="translate(1078 1808)">
      <g id="Group_4407" data-name="Group 4407" transform="translate(0 0)">
        <g id="Group_4406" data-name="Group 4406">
          <path id="Path_3081" data-name="Path 3081" d="M34.375,6.342,28.23.2a.675.675,0,0,0-.477-.2H7.7A2.028,2.028,0,0,0,5.672,2.026V3.313A8.934,8.934,0,0,0,0,11.62a.675.675,0,0,0,.675.675H8.919a.675.675,0,0,0,.675-.675V3.376A.675.675,0,0,0,8.919,2.7a8.916,8.916,0,0,0-1.9.2V2.026A.676.676,0,0,1,7.7,1.35h19.38V5.47A2.028,2.028,0,0,0,29.1,7.5h4.119V32.547a.676.676,0,0,1-.675.675H7.7a.676.676,0,0,1-.675-.675V26.762a.675.675,0,0,0-1.35,0v5.785A2.028,2.028,0,0,0,7.7,34.573H32.547a2.028,2.028,0,0,0,2.026-2.026V6.819A.675.675,0,0,0,34.375,6.342ZM8.244,4.081v6.864H1.38A7.582,7.582,0,0,1,8.244,4.081ZM29.1,6.145a.676.676,0,0,1-.675-.675V2.305l3.84,3.839Z" transform="translate(0 0)" fill="#d20d21" stroke="#d20d21" stroke-width="0.5"/>
        </g>
      </g>
      <g id="Group_4411" data-name="Group 4411" transform="translate(2.419 5.12)">
        <g id="Group_4410" data-name="Group 4410">
          <path id="Path_3083" data-name="Path 3083" d="M44.738,75.819a.675.675,0,0,0-.675.675v7.569H36.494a.675.675,0,0,0-.675.675,8.919,8.919,0,1,0,8.919-8.919Zm.675,1.38a7.535,7.535,0,0,1,4.175,1.733l-4.175,4.175Zm-.675,15.108A7.579,7.579,0,0,1,37.2,85.414h7.539a.673.673,0,0,0,.477-.2h0l5.328-5.328a7.565,7.565,0,0,1-5.806,12.42Z" transform="translate(-35.819 -75.819)" fill="#d20d21" stroke="#d20d21" stroke-width="0.5"/>
        </g>
      </g>
      <g id="Group_4415" data-name="Group 4415" transform="translate(21.117 28.619)">
        <g id="Group_4414" data-name="Group 4414">
          <path id="Path_3085" data-name="Path 3085" d="M329.55,235h-3.564a.675.675,0,0,0,0,1.35h3.564a.675.675,0,1,0,0-1.35Z" transform="translate(-325.311 -235)" fill="#d20d21" stroke="#d20d21" stroke-width="0.5"/>
        </g>
      </g>
      <g id="Group_4417" data-name="Group 4417" transform="translate(27.755 28.619)">
        <g id="Group_4416" data-name="Group 4416">
          <path id="Path_3086" data-name="Path 3086" d="M424.773,235.2a.675.675,0,1,0,.2.477A.68.68,0,0,0,424.773,235.2Z" transform="translate(-423.62 -235)" fill="#d20d21" stroke="#d20d21" stroke-width="0.5"/>
        </g>
      </g>
      <g id="Group_4419" data-name="Group 4419" transform="translate(21.117 22.137)">
        <g id="Group_4418" data-name="Group 4418">
          <path id="Path_3087" data-name="Path 3087" d="M334.235,139h-8.248a.675.675,0,0,0,0,1.35h8.248a.675.675,0,1,0,0-1.35Z" transform="translate(-325.311 -139)" fill="#d20d21" stroke="#d20d21" stroke-width="0.5"/>
        </g>
      </g>
      <g id="Group_4421" data-name="Group 4421" transform="translate(21.117 25.378)">
        <g id="Group_4420" data-name="Group 4420">
          <path id="Path_3088" data-name="Path 3088" d="M334.235,187h-8.248a.675.675,0,0,0,0,1.35h8.248a.675.675,0,1,0,0-1.35Z" transform="translate(-325.311 -187)" fill="#d20d21" stroke="#d20d21" stroke-width="0.5"/>
        </g>
      </g>
    </g>
  </g>
</svg>
