<svg xmlns="http://www.w3.org/2000/svg" xmlns:xlink="http://www.w3.org/1999/xlink" width="207" height="171" viewBox="0 0 207 171">
  <defs>
    <linearGradient id="linear-gradient" x1="0.521" y1="0.157" x2="0.5" y2="2.615" gradientUnits="objectBoundingBox">
      <stop offset="0" stop-color="#f30f26"/>
      <stop offset="1" stop-color="#7a0813"/>
    </linearGradient>
    <linearGradient id="linear-gradient-2" x1="0.5" y1="0" y2="1" xlink:href="#linear-gradient"/>
    <linearGradient id="linear-gradient-4" x1="0.5" x2="0.5" y2="1" gradientUnits="objectBoundingBox">
      <stop offset="0" stop-color="#9a0918"/>
      <stop offset="1" stop-color="#7a0813"/>
    </linearGradient>
  </defs>
  <g id="Group_4638" data-name="Group 4638" transform="translate(-323 -66.004)">
    <path id="Path_3146" data-name="Path 3146" d="M184.112,119.183H20.232A20.239,20.239,0,0,1,0,98.983V78.152H204.344V98.983a20.239,20.239,0,0,1-20.232,20.2Zm20.232-78.152H0V20.2A20.239,20.239,0,0,1,20.232,0h163.88a20.239,20.239,0,0,1,20.232,20.2V41.027Z" transform="translate(323 90.239)" fill="url(#linear-gradient)"/>
    <path id="Path_3147" data-name="Path 3147" d="M8.1,8.772H5.27V-6.105H.17V-8.529H13.2v2.424H8.1ZM19.42-.483H21.39a4.5,4.5,0,0,0,2.87-.733,2.66,2.66,0,0,0,.888-2.178A2.342,2.342,0,0,0,24.186-5.5a5.27,5.27,0,0,0-2.894-.638H19.42Zm0,2.343V8.772H16.587v-17.3h4.894a8.058,8.058,0,0,1,4.968,1.254,4.5,4.5,0,0,1,1.619,3.788,4.736,4.736,0,0,1-3.37,4.6l4.9,7.658H26.37L22.219,1.86ZM32.838,8.772v-17.3h2.833v17.3ZM46.576,3.458V1.1h6.1V3.464ZM75.073-3.3A5.046,5.046,0,0,1,73.29.854,7.847,7.847,0,0,1,68.23,2.3h-1.8V8.772H63.6v-17.3h4.993a7.563,7.563,0,0,1,4.867,1.325,4.755,4.755,0,0,1,1.617,3.9ZM66.429-.081h1.506a5.4,5.4,0,0,0,3.2-.758,2.755,2.755,0,0,0,1.012-2.368,2.684,2.684,0,0,0-.913-2.222,4.515,4.515,0,0,0-2.845-.733H66.429ZM90.021,8.772,88.29,3.967H81.66L79.968,8.772H76.977L83.464-8.6h3.082L93.032,8.772ZM87.542,1.529,85.923-3.182q-.178-.473-.492-1.491T85-6.164a26.49,26.49,0,0,1-.937,3.184L82.5,1.529ZM98.875-.491h1.969a4.5,4.5,0,0,0,2.87-.733A2.66,2.66,0,0,0,104.6-3.4a2.341,2.341,0,0,0-.955-2.1,5.27,5.27,0,0,0-2.894-.638H98.879Zm0,2.343V8.772H96.041v-17.3h4.9a8.058,8.058,0,0,1,4.968,1.254,4.5,4.5,0,0,1,1.619,3.788,4.736,4.736,0,0,1-3.368,4.6l4.9,7.658h-3.226L101.682,1.86ZM125.891-8.531v11.2a6.63,6.63,0,0,1-.824,3.355,5.486,5.486,0,0,1-2.384,2.222,8.3,8.3,0,0,1-3.73.776,6.984,6.984,0,0,1-5.017-1.7,6.163,6.163,0,0,1-1.791-4.687V-8.523h2.845V2.425a4.37,4.37,0,0,0,1,3.151,4.111,4.111,0,0,0,3.06,1.01q4.007,0,4.007-4.2V-8.531Zm5.163,17.3v-17.3h2.833V6.348h7.342V8.772Zm23.7,0h-9.807v-17.3h9.807V-6.14h-6.974v4.711h6.535V.939h-6.535V6.371h6.972Zm17.247,0h-3.26L164.4,1.7l-4.375,7.07h-3.036L162.742-.2l-5.383-8.333h3.157l4.007,6.545,4.007-6.545h3.06L166.164-.152Z" transform="translate(339.334 150.67)" fill="#191818"/>
    <path id="Path_3148" data-name="Path 3148" d="M2.957,6.654H.848V-6.325H8.186v1.794H2.957V-.475h4.9v1.8h-4.9Zm7.949,0V-6.325h2.125V6.654ZM18.964-.289h1.475a3.376,3.376,0,0,0,2.151-.549,2,2,0,0,0,.668-1.634,1.756,1.756,0,0,0-.72-1.58,3.956,3.956,0,0,0-2.169-.479h-1.4Zm0,1.757V6.654H16.829V-6.325H20.5a6.043,6.043,0,0,1,3.726.941,3.377,3.377,0,0,1,1.212,2.84A3.552,3.552,0,0,1,22.914.909l3.671,5.745H24.157l-3.1-5.183ZM36.188,6.654H28.834V-6.325h7.354v1.794H30.958V-1h4.9V.778h-4.9V4.852h5.229ZM51.95,3.129A3.264,3.264,0,0,1,50.7,5.846a5.471,5.471,0,0,1-3.458.986,8.268,8.268,0,0,1-3.612-.683V4.143a9.825,9.825,0,0,0,1.89.657,8.025,8.025,0,0,0,1.864.24,2.969,2.969,0,0,0,1.864-.479,1.562,1.562,0,0,0,.607-1.287,1.615,1.615,0,0,0-.55-1.234,8.3,8.3,0,0,0-2.277-1.2A6.023,6.023,0,0,1,44.521-.8a3.47,3.47,0,0,1-.729-2.222,3.107,3.107,0,0,1,1.156-2.557,4.8,4.8,0,0,1,3.1-.931A9.133,9.133,0,0,1,51.77-5.7l-.676,1.731A8.133,8.133,0,0,0,48-4.7a2.379,2.379,0,0,0-1.564.448A1.472,1.472,0,0,0,45.9-3.064a1.666,1.666,0,0,0,.212.865,2.178,2.178,0,0,0,.7.679,11.893,11.893,0,0,0,1.761.842A9.64,9.64,0,0,1,50.675.43a3.266,3.266,0,0,1,.977,1.164,3.493,3.493,0,0,1,.3,1.535ZM62.9,6.654l-1.3-3.6h-4.97l-1.271,3.6H53.12L57.977-6.377H60.29L65.161,6.654ZM61.045,1.222,59.83-2.311q-.134-.356-.368-1.119t-.324-1.119a19.869,19.869,0,0,1-.712,2.388L57.252,1.22Zm8.309,5.432H67.241V-6.325h7.336v1.794H69.354V-.475h4.9v1.8h-4.9Zm15.305,0H77.3V-6.325h7.354v1.794H79.426V-1h4.9V.778h-4.9V4.852h5.229Zm7.666,0H90.2V-4.5H86.373V-6.323h9.774V-4.5H92.323ZM102.178-.4l3.078-5.921h2.313L103.239,1.62V6.654H101.1V1.691L96.785-6.325H99.1Zm19.915,7.058h-7.354V-6.325h7.354v1.794h-5.229V-1h4.9V.778h-4.9V4.852h5.229Zm14.006,0h-2.6L127.1-3.688h-.071l.045.578q.125,1.65.125,3.018V6.654h-1.931V-6.325h2.57l6.377,10.288h.053q-.018-.2-.071-1.487t-.053-2v-6.8h1.947Zm9.107-7.04h4.784V6.131a13.867,13.867,0,0,1-2.254.541,15.987,15.987,0,0,1-2.335.16,5.875,5.875,0,0,1-4.553-1.745,7.015,7.015,0,0,1-1.6-4.923,6.556,6.556,0,0,1,1.805-4.9,6.793,6.793,0,0,1,4.972-1.772,9.7,9.7,0,0,1,3.873.784l-.747,1.768a7.521,7.521,0,0,0-3.165-.727,4.268,4.268,0,0,0-3.291,1.3A5.044,5.044,0,0,0,141.48.186,5.32,5.32,0,0,0,142.569,3.8,3.954,3.954,0,0,0,145.7,5.038a10.32,10.32,0,0,0,2.206-.257V1.434h-2.694Zm10.4.1h1.475a3.376,3.376,0,0,0,2.151-.549,2,2,0,0,0,.668-1.634,1.756,1.756,0,0,0-.71-1.58,3.956,3.956,0,0,0-2.169-.479h-1.4Zm0,1.757V6.654h-2.125V-6.325h3.673a6.043,6.043,0,0,1,3.726.941,3.377,3.377,0,0,1,1.214,2.84A3.552,3.552,0,0,1,159.564.909l3.677,5.745h-2.416L157.71,1.471Zm17.377,1.66a3.264,3.264,0,0,1-1.245,2.717,5.471,5.471,0,0,1-3.458.986,8.267,8.267,0,0,1-3.606-.683V4.143a9.825,9.825,0,0,0,1.89.657,8.025,8.025,0,0,0,1.864.24,2.969,2.969,0,0,0,1.864-.479,1.563,1.563,0,0,0,.607-1.287,1.615,1.615,0,0,0-.55-1.234,8.3,8.3,0,0,0-2.277-1.2A6.023,6.023,0,0,1,165.56-.8a3.47,3.47,0,0,1-.729-2.222,3.107,3.107,0,0,1,1.156-2.557,4.8,4.8,0,0,1,3.1-.931,9.132,9.132,0,0,1,3.717.808l-.676,1.731a8.133,8.133,0,0,0-3.094-.727,2.379,2.379,0,0,0-1.564.448,1.471,1.471,0,0,0-.534,1.186,1.666,1.666,0,0,0,.213.865,2.177,2.177,0,0,0,.7.679,11.892,11.892,0,0,0,1.761.842,9.641,9.641,0,0,1,2.1,1.109,3.266,3.266,0,0,1,.977,1.164,3.493,3.493,0,0,1,.3,1.535Zm2.347,2.424a1.366,1.366,0,0,1,.338-.994,1.307,1.307,0,0,1,.977-.345,1.29,1.29,0,0,1,.988.36,1.374,1.374,0,0,1,.338.982,1.412,1.412,0,0,1-.342,1,1.5,1.5,0,0,1-1.961,0,1.412,1.412,0,0,1-.33-1.012Z" transform="translate(335.985 230.08)" fill="#191818"/>
    <path id="Path_3149" data-name="Path 3149" d="M3.587,3.641H2.057V-2.3H.1V-3.569H5.554V-2.3H3.587Zm6.424,0L8.275-2.016H8.231q.093,1.725.093,2.3V3.641H6.958v-7.21H9.039l1.707,5.513h.03l1.818-5.513h2.081v7.21H13.24V-.329q0-.315.067-1.677h-.036L11.412,3.641Z" transform="translate(515.325 76.496)" fill="#191818"/>
    <path id="Path_3000" data-name="Path 3000" d="M993.064,243.052s-4.5-11.577-4.814-13.664a18.068,18.068,0,0,1,2.608-12.928c3.6-5.553,7.29-5.559,12.1-12.829a62.021,62.021,0,0,0,7.141-16.255s4.161,10.615,3.29,18.34-3.481,11.064-8.282,15.756a55.259,55.259,0,0,0-9.456,11.468,16.672,16.672,0,0,0-2.588,10.112Z" transform="translate(-505.28 -121.371)" fill="url(#linear-gradient-2)"/>
    <path id="Path_3002" data-name="Path 3002" d="M989.968,209.278a11.808,11.808,0,0,1-3.143-5.947,14,14,0,0,1,2.646-9.159,32.394,32.394,0,0,1,8.7-7.793,22.435,22.435,0,0,0,7.01-7.1,7.941,7.941,0,0,1-1.473,7.1c-2.727,4.081-6.288,6.22-8.818,9.024a17.466,17.466,0,0,0-4.375,7.383A17.794,17.794,0,0,0,989.968,209.278Z" transform="translate(-496.836 -78.809)" fill="url(#linear-gradient-2)"/>
    <path id="Path_3006" data-name="Path 3006" d="M988.453,210.415a11.443,11.443,0,0,1-.38-4.646,24.052,24.052,0,0,1,3.135-8.264,39.59,39.59,0,0,1,8.056-8.866,37.637,37.637,0,0,0,6.576-7.42,30.39,30.39,0,0,0,2.737-5.608,26.029,26.029,0,0,1-1.386,4.915,24.736,24.736,0,0,1-2.424,4.268c-2.463,3.685-10.086,10.951-11.133,12.393a45.087,45.087,0,0,0-3.668,6.2,18.583,18.583,0,0,0-1.513,7.024Z" transform="translate(-500.765 -89.398)" fill="url(#linear-gradient-4)"/>
    <path id="Path_3003" data-name="Path 3003" d="M.8,8.345A5.2,5.2,0,0,1,.1,7.022a3.535,3.535,0,0,1,.21-2.311c.315-.586.622-.737,1.541-1.6A20.215,20.215,0,0,0,4.124,0a6.08,6.08,0,0,1-.376,2.737A9.506,9.506,0,0,1,1.894,5.252,3.887,3.887,0,0,0,.921,6.894,3.959,3.959,0,0,0,.8,8.345Z" transform="matrix(-0.799, -0.602, 0.602, -0.799, 502.417, 121.712)" fill="url(#linear-gradient-2)"/>
    <path id="Path_3004" data-name="Path 3004" d="M1.107,11.514A7.185,7.185,0,0,1,.141,9.7,4.88,4.88,0,0,1,.44,6.5,17.651,17.651,0,0,1,2.5,3.81C3.812,2.184,5.7,0,5.7,0a8.393,8.393,0,0,1-.519,3.78A13.13,13.13,0,0,1,2.624,7.258,5.365,5.365,0,0,0,1.277,9.527,5.466,5.466,0,0,0,1.107,11.514Z" transform="translate(513.256 97.953) rotate(-169)" fill="url(#linear-gradient-2)"/>
  </g>
</svg>
