<svg xmlns="http://www.w3.org/2000/svg" width="66" height="66" viewBox="0 0 66 66">
  <g id="Group_4435" data-name="Group 4435" transform="translate(-615 -1998)">
    <g id="Group_4427" data-name="Group 4427" transform="translate(535 -924)">
      <g id="Ellipse_177" data-name="Ellipse 177" transform="translate(80 2922)" fill="#fff" stroke="#f0f0f0" stroke-width="1.5">
        <circle cx="33" cy="33" r="33" stroke="none"/>
        <circle cx="33" cy="33" r="32.25" fill="none"/>
      </g>
    </g>
    <g id="supply" transform="translate(631 2014)">
      <path id="Path_3096" data-name="Path 3096" d="M33.9,13.268a1.675,1.675,0,0,0,1.673-1.673V2.673A1.675,1.675,0,0,0,33.9,1H24.978A1.675,1.675,0,0,0,23.3,2.673v3.9H18.286a1.116,1.116,0,0,0-1.115-1.115h-.033A5.025,5.025,0,0,0,12.152,1H7.691A5.024,5.024,0,0,0,2.706,5.461H2.673A1.116,1.116,0,0,0,1.558,6.576V7.691A1.116,1.116,0,0,0,2.673,8.807v2.827a6.163,6.163,0,0,0,3.98,5.744l.481.18v1.429A8.9,8.9,0,0,0,1,27.432a5.917,5.917,0,0,0,5.91,5.91h5.243V33.9a1.675,1.675,0,0,0,1.673,1.673h6.691A1.675,1.675,0,0,0,22.19,33.9V30h1.144A6.132,6.132,0,1,0,30,23.333V19.857a1.663,1.663,0,0,0,0-3.141V13.268ZM27.766,2.115h3.346v2.23H27.766Zm-3.346.558a.558.558,0,0,1,.558-.558h1.673V5.461h5.576V2.115H33.9a.558.558,0,0,1,.558.558v8.922a.558.558,0,0,1-.558.558H24.978a.558.558,0,0,1-.558-.558ZM7.691,2.115h4.461a3.907,3.907,0,0,1,3.859,3.346H3.833A3.907,3.907,0,0,1,7.691,2.115ZM2.673,6.576h14.5V7.691H2.673Zm13.284,5.039a.592.592,0,0,1,.1.327.682.682,0,0,1-.379.613l-.737.368v2.017a1.675,1.675,0,0,1-1.673,1.673H10.48v2.6H8.249V14.662l-1.71-1.283a1.3,1.3,0,0,1,.78-2.342h.93V8.807h6.691v1.284ZM7.045,16.333a5.041,5.041,0,0,1-3.257-4.7V8.807H7.134V9.929A2.416,2.416,0,0,0,5.87,14.271l1.264.948v1.147Zm-4.929,11.1A7.784,7.784,0,0,1,6.21,20.6l6.355-.412a7.731,7.731,0,0,1,5.5,4.236H13.825a1.675,1.675,0,0,0-1.673,1.673v1.686a2.212,2.212,0,0,0-1.442.64l-.462.462H7.759a2.316,2.316,0,0,1-1.625-.673,2.283,2.283,0,0,1-.673-1.625V24.978H4.346v1.605A3.414,3.414,0,0,0,7.759,30H9.922v2.23H6.91a4.8,4.8,0,0,1-4.794-4.8Zm8.922,2.238.462-.462a1.11,1.11,0,0,1,.789-.327h.98A1.116,1.116,0,0,1,14.383,30v1.115a1.116,1.116,0,0,1-1.115,1.115H11.037ZM21.074,33.9a.558.558,0,0,1-.558.558H13.825a.558.558,0,0,1-.558-.558v-.558a2.233,2.233,0,0,0,2.231-2.23V30a2.233,2.233,0,0,0-2.231-2.23V26.093a.558.558,0,0,1,.558-.558h6.691a.558.558,0,0,1,.558.558Zm13.383-4.461a5.019,5.019,0,1,1-5.019-5.019A5.024,5.024,0,0,1,34.457,29.439ZM29.439,18.844A.558.558,0,1,1,30,18.286.558.558,0,0,1,29.439,18.844Zm-.558-2.128a1.663,1.663,0,0,0,0,3.141v3.477a6.14,6.14,0,0,0-5.548,5.548H22.19V26.093a1.675,1.675,0,0,0-1.673-1.673H19.285A8.85,8.85,0,0,0,12.251,19l-.656-.088V17.729h1.673a2.791,2.791,0,0,0,2.788-2.788V13.612l.12-.06a1.792,1.792,0,0,0,.995-1.61A1.7,1.7,0,0,0,16.885,11l-.829-1.243V8.807h1.115a1.116,1.116,0,0,0,1.115-1.115H23.3v3.9a1.675,1.675,0,0,0,1.673,1.673h3.9Z" transform="translate(-1 -1)" fill="#d20d21" stroke="#d20d21" stroke-width="0.5"/>
    </g>
  </g>
</svg>
