<svg xmlns="http://www.w3.org/2000/svg" width="66" height="66" viewBox="0 0 66 66">
  <g id="Group_4436" data-name="Group 4436" transform="translate(-1062 -1998)">
    <g id="Group_4426" data-name="Group 4426" transform="translate(982 -924)">
      <g id="Ellipse_177" data-name="Ellipse 177" transform="translate(80 2922)" fill="#fff" stroke="#f0f0f0" stroke-width="1.5">
        <circle cx="33" cy="33" r="33" stroke="none"/>
        <circle cx="33" cy="33" r="32.25" fill="none"/>
      </g>
    </g>
    <g id="test" transform="translate(1079 2014)">
      <path id="Path_3101" data-name="Path 3101" d="M86.915,145h-5.4a1.013,1.013,0,1,0,0,2.026h5.4a1.013,1.013,0,0,0,0-2.026Z" transform="translate(-76.178 -135.209)" fill="#d20d21"/>
      <path id="Path_3102" data-name="Path 3102" d="M86.915,225h-5.4a1.013,1.013,0,1,0,0,2.026h5.4a1.013,1.013,0,1,0,0-2.026Z" transform="translate(-76.178 -209.807)" fill="#d20d21"/>
      <path id="Path_3103" data-name="Path 3103" d="M86.915,305h-5.4a1.013,1.013,0,0,0,0,2.026h5.4a1.013,1.013,0,0,0,0-2.026Z" transform="translate(-76.178 -284.405)" fill="#d20d21"/>
      <path id="Path_3104" data-name="Path 3104" d="M41.754,18.564V9.317A5.035,5.035,0,0,0,40.3,5.77L36.2,1.52l-.006-.006A5.1,5.1,0,0,0,32.577,0H19.539A3.042,3.042,0,0,0,16.5,3.039V29.306a3.042,3.042,0,0,0,3.039,3.039H35.193a8.052,8.052,0,1,0,6.561-13.78ZM18.526,29.306V3.039a1.014,1.014,0,0,1,1.013-1.013H32.577a3.059,3.059,0,0,1,2.165.906l4.109,4.249.006.006a3.021,3.021,0,0,1,.872,2.13v9.248a8.033,8.033,0,0,0-6.075,11.753H19.539a1.014,1.014,0,0,1-1.013-1.013Zm22.216,3.241a6.01,6.01,0,1,1,6.077-6.01A6.016,6.016,0,0,1,40.741,32.547Z" transform="translate(-16.5 0)" fill="#d20d21"/>
      <path id="Path_3105" data-name="Path 3105" d="M334.94,354.236a1.013,1.013,0,0,0-1.427.13l-1.71,2.051-.388-.776a1.013,1.013,0,0,0-1.812.906l1.08,2.161a1.013,1.013,0,0,0,.789.553,1.031,1.031,0,0,0,.117.007,1.013,1.013,0,0,0,.778-.364l2.7-3.241A1.013,1.013,0,0,0,334.94,354.236Z" transform="translate(-308.362 -330.098)" fill="#d20d21"/>
      <path id="Path_3106" data-name="Path 3106" d="M241.513,147.026h1.08a1.013,1.013,0,1,0,0-2.026h-1.08a1.013,1.013,0,0,0,0,2.026Z" transform="translate(-225.374 -135.209)" fill="#d20d21"/>
      <path id="Path_3107" data-name="Path 3107" d="M243.606,226.013A1.013,1.013,0,0,0,242.593,225h-1.08a1.013,1.013,0,1,0,0,2.026h1.08A1.013,1.013,0,0,0,243.606,226.013Z" transform="translate(-225.374 -209.807)" fill="#d20d21"/>
    </g>
  </g>
</svg>
