<svg xmlns="http://www.w3.org/2000/svg" xmlns:xlink="http://www.w3.org/1999/xlink" width="66" height="54.275" viewBox="0 0 66 54.275">
  <defs>
    <linearGradient id="linear-gradient" x1="0.521" y1="0.157" x2="0.5" y2="2.615" gradientUnits="objectBoundingBox">
      <stop offset="0" stop-color="#fff"/>
      <stop offset="1" stop-color="#d9d9d9"/>
    </linearGradient>
    <linearGradient id="linear-gradient-2" x1="0.5" x2="0.5" y2="1" gradientUnits="objectBoundingBox">
      <stop offset="0" stop-color="#f30f26"/>
      <stop offset="1" stop-color="#7a0813"/>
    </linearGradient>
    <linearGradient id="linear-gradient-4" x1="0.5" x2="0.5" y2="1" gradientUnits="objectBoundingBox">
      <stop offset="0" stop-color="#9a0918"/>
      <stop offset="1" stop-color="#7a0813"/>
    </linearGradient>
  </defs>
  <g id="Group_4637" data-name="Group 4637" transform="translate(-201 -125.002)">
    <path id="Path_3142" data-name="Path 3142" d="M58.849,41.134H6.467A6.741,6.741,0,0,1,0,34.162V26.973H65.312v7.189a6.742,6.742,0,0,1-6.463,6.972Zm6.463-26.973H0V6.972A6.741,6.741,0,0,1,6.467,0H58.849a6.742,6.742,0,0,1,6.463,6.972V14.16Z" transform="translate(201 131.275)" fill="url(#linear-gradient)"/>
    <path id="Path_3143" data-name="Path 3143" d="M2.8-4.1H1.858V-7.955H.17v-.628H4.485v.628H2.8ZM6.545-6.5H7.2a1.82,1.82,0,0,0,.95-.19.624.624,0,0,0,.295-.564A.565.565,0,0,0,8.123-7.8a2.158,2.158,0,0,0-.958-.165h-.62Zm0,.607V-4.1H5.606V-8.583H7.228a3.264,3.264,0,0,1,1.646.325,1.066,1.066,0,0,1,.535.98A1.3,1.3,0,0,1,8.293-6.086L9.914-4.1H8.846L7.472-5.894ZM10.988-4.1V-8.583h.938V-4.1Zm4.551-1.375v-.613h2.019v.613Zm9.436-1.754a1.194,1.194,0,0,1-.588,1.075,3.146,3.146,0,0,1-1.677.374h-.6V-4.1h-.938V-8.583h1.654a3.044,3.044,0,0,1,1.609.343A1.12,1.12,0,0,1,24.974-7.229ZM22.112-6.4h.5a2.2,2.2,0,0,0,1.06-.2.655.655,0,0,0,.337-.613.635.635,0,0,0-.3-.576,1.826,1.826,0,0,0-.942-.19h-.652Zm7.812,2.3-.573-1.244h-2.2L26.593-4.1H25.6l2.148-4.5h1.026l2.148,4.5ZM29.1-5.975,28.565-7.2q-.059-.123-.163-.386t-.144-.386a5.774,5.774,0,0,1-.31.824l-.513,1.167ZM32.858-6.5h.652a1.82,1.82,0,0,0,.95-.19.624.624,0,0,0,.295-.564.565.565,0,0,0-.32-.546,2.158,2.158,0,0,0-.958-.165h-.619Zm0,.607V-4.1H31.92V-8.583h1.618a3.264,3.264,0,0,1,1.646.325,1.066,1.066,0,0,1,.535.98A1.3,1.3,0,0,1,34.6-6.086L36.229-4.1H35.161L33.785-5.894ZM41.8-8.583v2.9a1.428,1.428,0,0,1-.273.868,1.721,1.721,0,0,1-.79.573,3.414,3.414,0,0,1-1.234.2,2.743,2.743,0,0,1-1.666-.441A1.421,1.421,0,0,1,37.255-5.7V-8.583H38.2V-5.75a.977.977,0,0,0,.329.818,1.619,1.619,0,0,0,1.013.263q1.327,0,1.327-1.087V-8.583ZM43.512-4.1V-8.583h.938v3.851h2.436V-4.1Zm7.848,0H48.111V-8.583h3.244v.619H49.048v1.219h2.164v.613H49.048v1.406h2.307Zm5.711,0H55.991L54.552-5.936,53.1-4.1h-1L54-6.422,52.221-8.583h1.045l1.327,1.694,1.327-1.694h1.013L55.137-6.414Z" transform="translate(205.101 158.258)" fill="#fff"/>
    <path id="Path_3144" data-name="Path 3144" d="M1.542-3.11H.848V-6.469h2.42V-6H1.542v1.05H3.154v.466H1.542Zm2.616,0V-6.469h.7V-3.11Zm2.647-1.8H7.29A1.349,1.349,0,0,0,8-5.052a.469.469,0,0,0,.219-.423.424.424,0,0,0-.237-.409A1.6,1.6,0,0,0,7.267-6H6.805Zm0,.455V-3.11h-.7V-6.469H7.314a2.418,2.418,0,0,1,1.226.244.8.8,0,0,1,.4.735.972.972,0,0,1-.83.894L9.319-3.11h-.8L7.5-4.452ZM12.474-3.11h-2.42V-6.469h2.42V-6h-1.72v.914h1.612v.459H10.754v1.055h1.72Zm5.187-.912a.788.788,0,0,1-.413.7,2.166,2.166,0,0,1-1.138.255,3.373,3.373,0,0,1-1.188-.177V-3.76a3.854,3.854,0,0,0,.621.17,3.321,3.321,0,0,0,.613.062,1.186,1.186,0,0,0,.613-.124.373.373,0,0,0,.2-.333.384.384,0,0,0-.181-.319,3.046,3.046,0,0,0-.749-.31,2.091,2.091,0,0,1-.825-.425.781.781,0,0,1-.239-.574.742.742,0,0,1,.382-.662,1.894,1.894,0,0,1,1.019-.241,3.7,3.7,0,0,1,1.222.211l-.223.448a3.292,3.292,0,0,0-1.019-.188.942.942,0,0,0-.509.116.352.352,0,0,0-.176.307.361.361,0,0,0,.07.224.67.67,0,0,0,.232.176A4.451,4.451,0,0,0,16.549-5a3.535,3.535,0,0,1,.69.287.936.936,0,0,1,.322.3A.741.741,0,0,1,17.661-4.022Zm3.6.912-.427-.933H19.2l-.419.933h-.737l1.6-3.373h.764l1.6,3.373Zm-.61-1.406-.4-.914q-.043-.092-.127-.289a2.191,2.191,0,0,1-.107-.289,4.349,4.349,0,0,1-.232.618l-.382.875ZM23.384-3.11H22.69V-6.469h2.42V-6H23.384v1.05H25v.466H23.384Zm5.035,0H26V-6.469h2.42V-6H26.7v.914h1.612v.459H26.7v1.055H28.42Zm2.521,0h-.7V-6H28.983v-.471H32.2V-6H30.94Zm3.242-1.826,1.012-1.532h.764L34.533-4.413v1.3h-.7V-4.394L32.409-6.469h.764ZM40.736-3.11h-2.42V-6.469h2.42V-6h-1.72v.914h1.612v.459H39.015v1.055h1.72Zm4.607,0h-.857l-2.1-2.676h-.023l.014.149q.041.427.041.781V-3.11h-.637V-6.469h.848L44.72-3.806h.018q0-.053-.023-.385T44.7-4.709v-1.76h.637Zm3-1.822h1.574v1.686a5.616,5.616,0,0,1-.741.14,6.665,6.665,0,0,1-.764.041,2.243,2.243,0,0,1-1.5-.451,1.584,1.584,0,0,1-.537-1.273,1.509,1.509,0,0,1,.593-1.269A2.624,2.624,0,0,1,48.6-6.516a3.949,3.949,0,0,1,1.273.2l-.246.457a3.042,3.042,0,0,0-1.042-.188,1.621,1.621,0,0,0-1.082.338,1.142,1.142,0,0,0-.4.924,1.184,1.184,0,0,0,.358.936,1.5,1.5,0,0,0,1.031.32,4.278,4.278,0,0,0,.726-.067v-.866h-.891Zm3.42.025h.485a1.349,1.349,0,0,0,.708-.142.469.469,0,0,0,.219-.423.424.424,0,0,0-.237-.409A1.6,1.6,0,0,0,52.225-6h-.462Zm0,.455V-3.11h-.7V-6.469h1.208a2.418,2.418,0,0,1,1.226.244.8.8,0,0,1,.4.735.972.972,0,0,1-.83.894L54.271-3.11h-.8L52.456-4.452Zm5.716.43a.788.788,0,0,1-.413.7,2.166,2.166,0,0,1-1.138.255,3.373,3.373,0,0,1-1.188-.177V-3.76a3.854,3.854,0,0,0,.621.17,3.321,3.321,0,0,0,.613.062,1.186,1.186,0,0,0,.613-.124.373.373,0,0,0,.2-.333A.384.384,0,0,0,56.6-4.3a3.046,3.046,0,0,0-.749-.31,2.086,2.086,0,0,1-.819-.426.781.781,0,0,1-.239-.574.742.742,0,0,1,.382-.662A1.894,1.894,0,0,1,56.2-6.517a3.7,3.7,0,0,1,1.222.211l-.223.448a3.292,3.292,0,0,0-1.019-.188.942.942,0,0,0-.509.116.352.352,0,0,0-.176.307.361.361,0,0,0,.07.224.669.669,0,0,0,.23.176,4.451,4.451,0,0,0,.579.218,3.535,3.535,0,0,1,.69.287.936.936,0,0,1,.322.3.738.738,0,0,1,.094.4Zm.772.625a.31.31,0,0,1,.111-.257.5.5,0,0,1,.322-.09.5.5,0,0,1,.325.093.312.312,0,0,1,.111.254.32.32,0,0,1-.112.258.486.486,0,0,1-.323.1.488.488,0,0,1-.322-.094A.319.319,0,0,1,58.25-3.4Z" transform="translate(203.732 182.315)" fill="#fff"/>
    <path id="Path_3145" data-name="Path 3145" d="M1-1.7H.6V-3.24H.1v-.329H1.509v.329H1Zm1.662,0L2.216-3.167H2.2q.024.447.024.6V-1.7H1.875V-3.569h.539l.442,1.427h.008l.468-1.427H3.87V-1.7H3.5V-2.727q0-.081.017-.434H3.509L3.027-1.7Z" transform="translate(263.13 130.364)" fill="#fff"/>
    <path id="Path_3000" data-name="Path 3000" d="M989.3,201.783s-1.165-3-1.246-3.536a4.677,4.677,0,0,1,.675-3.347c.93-1.437,1.887-1.439,3.132-3.32a16.051,16.051,0,0,0,1.848-4.207,12.4,12.4,0,0,1,.851,4.747,5.824,5.824,0,0,1-2.142,4.078,14.3,14.3,0,0,0-2.447,2.968,4.315,4.315,0,0,0-.671,2.617Z" transform="translate(-733.218 -62.371)" fill="url(#linear-gradient-2)"/>
    <path id="Path_3002" data-name="Path 3002" d="M987.608,187.044a3.056,3.056,0,0,1-.814-1.539,3.621,3.621,0,0,1,.685-2.371,8.384,8.384,0,0,1,2.252-2.017,5.8,5.8,0,0,0,1.814-1.837,2.055,2.055,0,0,1-.381,1.837,18.219,18.219,0,0,1-2.282,2.335,4.52,4.52,0,0,0-1.132,1.911A4.607,4.607,0,0,0,987.608,187.044Z" transform="translate(-730.147 -42.909)" fill="url(#linear-gradient-2)"/>
    <path id="Path_3006" data-name="Path 3006" d="M988.107,184.617a2.963,2.963,0,0,1-.1-1.2,6.224,6.224,0,0,1,.811-2.139,10.245,10.245,0,0,1,2.085-2.294,9.746,9.746,0,0,0,1.7-1.92,7.875,7.875,0,0,0,.709-1.451,6.747,6.747,0,0,1-.359,1.272,6.418,6.418,0,0,1-.625,1.1c-.637.954-2.611,2.834-2.881,3.207a11.67,11.67,0,0,0-.949,1.606A4.809,4.809,0,0,0,988.107,184.617Z" transform="translate(-732.055 -45.377)" fill="url(#linear-gradient-4)"/>
    <path id="Path_3003" data-name="Path 3003" d="M.208,2.16a1.347,1.347,0,0,1-.181-.342.915.915,0,0,1,.056-.6c.082-.152.161-.191.4-.415A5.232,5.232,0,0,0,1.069,0a1.573,1.573,0,0,1-.1.709,2.46,2.46,0,0,1-.48.652,1.006,1.006,0,0,0-.252.425,1.025,1.025,0,0,0-.029.374Z" transform="matrix(-0.799, -0.602, 0.602, -0.799, 259.865, 142.301)" fill="url(#linear-gradient-2)"/>
    <path id="Path_3004" data-name="Path 3004" d="M.287,2.982a1.859,1.859,0,0,1-.25-.473,1.263,1.263,0,0,1,.077-.825,4.568,4.568,0,0,1,.533-.7C.987.565,1.476,0,1.476,0a2.172,2.172,0,0,1-.135.978,3.4,3.4,0,0,1-.663.9,1.388,1.388,0,0,0-.348.587,1.415,1.415,0,0,0-.043.517Z" transform="translate(262.67 133.271) rotate(-169)" fill="url(#linear-gradient-2)"/>
  </g>
</svg>
